<mxfile host="Electron" agent="Mozilla/5.0 (Windows NT 10.0; Win64; x64) AppleWebKit/537.36 (KHTML, like Gecko) draw.io/24.7.17 Chrome/128.0.6613.36 Electron/32.0.1 Safari/537.36" version="24.7.17">
  <diagram name="ページ1" id="g8sSt1EYbyQWIi9Pt_DM">
    <mxGraphModel dx="864" dy="460" grid="1" gridSize="10" guides="1" tooltips="1" connect="1" arrows="1" fold="1" page="1" pageScale="1" pageWidth="827" pageHeight="1169" math="0" shadow="0">
      <root>
        <mxCell id="0" />
        <mxCell id="1" parent="0" />
        <mxCell id="B286TyVE3M3dKoJ7LcA_-14" value="学生情報登録" style="text;html=1;align=center;verticalAlign=middle;resizable=0;points=[];autosize=1;strokeColor=none;fillColor=none;" vertex="1" parent="1">
          <mxGeometry x="505" y="180" width="100" height="30" as="geometry" />
        </mxCell>
        <mxCell id="B286TyVE3M3dKoJ7LcA_-15" value="学生情報" style="text;html=1;align=center;verticalAlign=middle;resizable=0;points=[];autosize=1;strokeColor=none;fillColor=none;" vertex="1" parent="1">
          <mxGeometry x="385" y="180" width="70" height="30" as="geometry" />
        </mxCell>
        <mxCell id="B286TyVE3M3dKoJ7LcA_-16" value="メニュー画面" style="text;html=1;align=center;verticalAlign=middle;resizable=0;points=[];autosize=1;strokeColor=none;fillColor=none;" vertex="1" parent="1">
          <mxGeometry x="210" y="180" width="100" height="30" as="geometry" />
        </mxCell>
        <mxCell id="B286TyVE3M3dKoJ7LcA_-17" value="学生オブジェクト" style="text;html=1;align=center;verticalAlign=middle;resizable=0;points=[];autosize=1;strokeColor=none;fillColor=none;" vertex="1" parent="1">
          <mxGeometry x="650" y="180" width="120" height="30" as="geometry" />
        </mxCell>
        <mxCell id="B286TyVE3M3dKoJ7LcA_-18" value="" style="shape=umlLifeline;perimeter=lifelinePerimeter;whiteSpace=wrap;html=1;container=1;dropTarget=0;collapsible=0;recursiveResize=0;outlineConnect=0;portConstraint=eastwest;newEdgeStyle={&quot;curved&quot;:0,&quot;rounded&quot;:0};participant=umlActor;" vertex="1" parent="1">
          <mxGeometry x="90" y="120" width="30" height="300" as="geometry" />
        </mxCell>
        <mxCell id="B286TyVE3M3dKoJ7LcA_-5" value="" style="html=1;points=[[0,0,0,0,5],[0,1,0,0,-5],[1,0,0,0,5],[1,1,0,0,-5]];perimeter=orthogonalPerimeter;outlineConnect=0;targetShapes=umlLifeline;portConstraint=eastwest;newEdgeStyle={&quot;curved&quot;:0,&quot;rounded&quot;:0};" vertex="1" parent="B286TyVE3M3dKoJ7LcA_-18">
          <mxGeometry x="10" y="90" width="10" height="80" as="geometry" />
        </mxCell>
        <mxCell id="B286TyVE3M3dKoJ7LcA_-7" value="" style="html=1;points=[[0,0,0,0,5],[0,1,0,0,-5],[1,0,0,0,5],[1,1,0,0,-5]];perimeter=orthogonalPerimeter;outlineConnect=0;targetShapes=umlLifeline;portConstraint=eastwest;newEdgeStyle={&quot;curved&quot;:0,&quot;rounded&quot;:0};" vertex="1" parent="B286TyVE3M3dKoJ7LcA_-18">
          <mxGeometry x="10" y="220" width="10" height="80" as="geometry" />
        </mxCell>
        <mxCell id="B286TyVE3M3dKoJ7LcA_-19" value="学生情報を選択（）" style="html=1;verticalAlign=bottom;endArrow=block;curved=0;rounded=0;" edge="1" parent="1" target="B286TyVE3M3dKoJ7LcA_-20">
          <mxGeometry width="80" relative="1" as="geometry">
            <mxPoint x="120" y="240" as="sourcePoint" />
            <mxPoint x="230" y="240" as="targetPoint" />
          </mxGeometry>
        </mxCell>
        <mxCell id="B286TyVE3M3dKoJ7LcA_-20" value="" style="shape=umlLifeline;perimeter=lifelinePerimeter;whiteSpace=wrap;html=1;container=1;dropTarget=0;collapsible=0;recursiveResize=0;outlineConnect=0;portConstraint=eastwest;newEdgeStyle={&quot;curved&quot;:0,&quot;rounded&quot;:0};participant=umlBoundary;" vertex="1" parent="1">
          <mxGeometry x="235" y="120" width="50" height="300" as="geometry" />
        </mxCell>
        <mxCell id="B286TyVE3M3dKoJ7LcA_-24" value="" style="html=1;points=[[0,0,0,0,5],[0,1,0,0,-5],[1,0,0,0,5],[1,1,0,0,-5]];perimeter=orthogonalPerimeter;outlineConnect=0;targetShapes=umlLifeline;portConstraint=eastwest;newEdgeStyle={&quot;curved&quot;:0,&quot;rounded&quot;:0};" vertex="1" parent="B286TyVE3M3dKoJ7LcA_-20">
          <mxGeometry x="20" y="90" width="10" height="80" as="geometry" />
        </mxCell>
        <mxCell id="B286TyVE3M3dKoJ7LcA_-21" value="" style="shape=umlLifeline;perimeter=lifelinePerimeter;whiteSpace=wrap;html=1;container=1;dropTarget=0;collapsible=0;recursiveResize=0;outlineConnect=0;portConstraint=eastwest;newEdgeStyle={&quot;curved&quot;:0,&quot;rounded&quot;:0};participant=umlBoundary;" vertex="1" parent="1">
          <mxGeometry x="389" y="120" width="50" height="300" as="geometry" />
        </mxCell>
        <mxCell id="B286TyVE3M3dKoJ7LcA_-26" value="" style="html=1;points=[[0,0,0,0,5],[0,1,0,0,-5],[1,0,0,0,5],[1,1,0,0,-5]];perimeter=orthogonalPerimeter;outlineConnect=0;targetShapes=umlLifeline;portConstraint=eastwest;newEdgeStyle={&quot;curved&quot;:0,&quot;rounded&quot;:0};" vertex="1" parent="B286TyVE3M3dKoJ7LcA_-21">
          <mxGeometry x="20" y="220" width="10" height="80" as="geometry" />
        </mxCell>
        <mxCell id="B286TyVE3M3dKoJ7LcA_-25" value="" style="html=1;points=[[0,0,0,0,5],[0,1,0,0,-5],[1,0,0,0,5],[1,1,0,0,-5]];perimeter=orthogonalPerimeter;outlineConnect=0;targetShapes=umlLifeline;portConstraint=eastwest;newEdgeStyle={&quot;curved&quot;:0,&quot;rounded&quot;:0};" vertex="1" parent="B286TyVE3M3dKoJ7LcA_-21">
          <mxGeometry x="20" y="90" width="10" height="80" as="geometry" />
        </mxCell>
        <mxCell id="B286TyVE3M3dKoJ7LcA_-22" value="" style="shape=umlLifeline;perimeter=lifelinePerimeter;whiteSpace=wrap;html=1;container=1;dropTarget=0;collapsible=0;recursiveResize=0;outlineConnect=0;portConstraint=eastwest;newEdgeStyle={&quot;curved&quot;:0,&quot;rounded&quot;:0};participant=umlControl;" vertex="1" parent="1">
          <mxGeometry x="535" y="120" width="40" height="300" as="geometry" />
        </mxCell>
        <mxCell id="B286TyVE3M3dKoJ7LcA_-27" value="" style="html=1;points=[[0,0,0,0,5],[0,1,0,0,-5],[1,0,0,0,5],[1,1,0,0,-5]];perimeter=orthogonalPerimeter;outlineConnect=0;targetShapes=umlLifeline;portConstraint=eastwest;newEdgeStyle={&quot;curved&quot;:0,&quot;rounded&quot;:0};" vertex="1" parent="B286TyVE3M3dKoJ7LcA_-22">
          <mxGeometry x="15" y="220" width="10" height="50" as="geometry" />
        </mxCell>
        <mxCell id="B286TyVE3M3dKoJ7LcA_-23" value="" style="shape=umlLifeline;perimeter=lifelinePerimeter;whiteSpace=wrap;html=1;container=1;dropTarget=0;collapsible=0;recursiveResize=0;outlineConnect=0;portConstraint=eastwest;newEdgeStyle={&quot;curved&quot;:0,&quot;rounded&quot;:0};participant=umlEntity;" vertex="1" parent="1">
          <mxGeometry x="670" y="120" width="40" height="300" as="geometry" />
        </mxCell>
        <mxCell id="B286TyVE3M3dKoJ7LcA_-28" value="" style="html=1;points=[[0,0,0,0,5],[0,1,0,0,-5],[1,0,0,0,5],[1,1,0,0,-5]];perimeter=orthogonalPerimeter;outlineConnect=0;targetShapes=umlLifeline;portConstraint=eastwest;newEdgeStyle={&quot;curved&quot;:0,&quot;rounded&quot;:0};" vertex="1" parent="B286TyVE3M3dKoJ7LcA_-23">
          <mxGeometry x="15" y="220" width="10" height="70" as="geometry" />
        </mxCell>
        <mxCell id="B286TyVE3M3dKoJ7LcA_-29" value="表示（）" style="html=1;verticalAlign=bottom;endArrow=block;curved=0;rounded=0;" edge="1" parent="1" source="B286TyVE3M3dKoJ7LcA_-24" target="B286TyVE3M3dKoJ7LcA_-25">
          <mxGeometry width="80" relative="1" as="geometry">
            <mxPoint x="370" y="240" as="sourcePoint" />
            <mxPoint x="450" y="240" as="targetPoint" />
          </mxGeometry>
        </mxCell>
        <mxCell id="B286TyVE3M3dKoJ7LcA_-30" value="学生データを入力（）" style="html=1;verticalAlign=bottom;endArrow=block;curved=0;rounded=0;entryX=0;entryY=0;entryDx=0;entryDy=5;entryPerimeter=0;exitX=1;exitY=0;exitDx=0;exitDy=5;exitPerimeter=0;" edge="1" parent="1" source="B286TyVE3M3dKoJ7LcA_-7" target="B286TyVE3M3dKoJ7LcA_-26">
          <mxGeometry width="80" relative="1" as="geometry">
            <mxPoint x="370" y="240" as="sourcePoint" />
            <mxPoint x="450" y="240" as="targetPoint" />
          </mxGeometry>
        </mxCell>
        <mxCell id="B286TyVE3M3dKoJ7LcA_-31" value="起動" style="html=1;verticalAlign=bottom;endArrow=block;curved=0;rounded=0;" edge="1" parent="1" target="B286TyVE3M3dKoJ7LcA_-27">
          <mxGeometry width="80" relative="1" as="geometry">
            <mxPoint x="420" y="360" as="sourcePoint" />
            <mxPoint x="450" y="240" as="targetPoint" />
          </mxGeometry>
        </mxCell>
        <mxCell id="B286TyVE3M3dKoJ7LcA_-32" value="学生データを選択（）" style="html=1;verticalAlign=bottom;endArrow=block;curved=0;rounded=0;" edge="1" parent="1" source="B286TyVE3M3dKoJ7LcA_-27" target="B286TyVE3M3dKoJ7LcA_-28">
          <mxGeometry width="80" relative="1" as="geometry">
            <mxPoint x="370" y="240" as="sourcePoint" />
            <mxPoint x="450" y="240" as="targetPoint" />
          </mxGeometry>
        </mxCell>
      </root>
    </mxGraphModel>
  </diagram>
</mxfile>
